# xmcd
#
# Track frame offsets:
# 150
# 20246
# 34426
# 51663
# 70449
# 87331
# 103502
# 113507
# 128745
# 141417
# 154828
# 168153
#
# Disc length: 2498 seconds
#
#
# Revision: 0
# Processed by: cddbd v1.5.1PL0 Copyright (c) Steve Scherf et al.
# Submitted via: FreeRIP 2.91 
#
DISCID=ad09c00c
DTITLE=Legacy Five - Monuments
DYEAR=2004
DGENRE=Gospel
TTITLE0=Consider The Cross
TTITLE1=Out Of My Darkness
TTITLE2=Roll Away
TTITLE3=Unless
TTITLE4=It's The Truth
TTITLE5=Calvary Reminds Me
TTITLE6=If It Couldn't Be Done
TTITLE7=Not That You Died
TTITLE8=Whosoever
TTITLE9=Monuments
TTITLE10=Raised To Walk
TTITLE11=Whispers In the Night
EXTD=
EXTT0=
EXTT1=
EXTT2=
EXTT3=
EXTT4=
EXTT5=
EXTT6=
EXTT7=
EXTT8=
EXTT9=
EXTT10=
EXTT11=
PLAYORDER=
